<svg width="59" height="59" viewBox="0 0 59 59" fill="none" xmlns="http://www.w3.org/2000/svg">
<path d="M26.1576 55.6895C27.9765 57.5083 30.9253 57.5083 32.7442 55.6895C34.563 53.8706 34.563 50.9217 32.7442 49.1029L9.91088 26.2696C8.09206 24.4508 5.14317 24.4508 3.32435 26.2696C1.50554 28.0885 1.50554 31.0373 3.32436 32.8562L26.1576 55.6895Z" fill="black"/>
<path d="M9.87966 32.7131C8.06084 34.5319 5.11196 34.5319 3.29314 32.7131C1.47432 30.8942 1.47432 27.9454 3.29314 26.1265L26.1264 3.29325C27.9452 1.47443 30.8941 1.47443 32.713 3.29325C34.5318 5.11207 34.5318 8.06096 32.713 9.87978L9.87966 32.7131Z" fill="black"/>
<rect width="9.31475" height="57.1305" rx="4.65738" transform="matrix(0 -1 -1 0 58.9826 34.1434)" fill="black"/>
</svg>
